<svg width="76" height="76" viewBox="0 0 76 76" fill="none" xmlns="http://www.w3.org/2000/svg">
<path d="M76 38C76 17.0132 58.9868 -8.36916e-06 38 -8.36916e-06C17.0132 -8.36916e-06 0 17.0132 0 38C0 56.9669 13.8961 72.6876 32.0625 75.5384V48.9844H22.4141V38H32.0625V29.6281C32.0625 20.1044 37.7356 14.8437 46.4157 14.8437C50.5732 14.8437 54.9219 15.5859 54.9219 15.5859V24.9375H50.1302C45.4096 24.9375 43.9375 27.8667 43.9375 30.8718V38H54.4766L52.7918 48.9844H43.9375V75.5384C62.1039 72.6876 76 56.9669 76 38Z" fill="#1877F2"/>
</svg>
